<svg width="24" height="24" viewBox="0 0 24 24" fill="none" xmlns="http://www.w3.org/2000/svg">
<path d="M2.18182 0C0.976364 0 0 0.976364 0 2.18182V21.8182C0 23.0236 0.976364 24 2.18182 24H21.8182C23.0236 24 24 23.0236 24 21.8182V2.18182C24 0.976364 23.0236 0 21.8182 0H2.18182ZM14.7273 7.63636H17.5163C17.8174 7.63636 18.0618 7.88073 18.0618 8.18182C18.0618 8.48291 17.8174 8.72727 17.5163 8.72727H14.7273C14.4262 8.72727 14.1818 8.48291 14.1818 8.18182C14.1818 7.88073 14.4262 7.63636 14.7273 7.63636ZM5.36719 8.05611H8.40554C10.199 8.05611 11.2692 8.93351 11.2692 10.3615C11.2692 11.3411 10.5446 12.1959 9.59659 12.3366V12.4517C10.8206 12.5412 11.7102 13.4636 11.7102 14.6548C11.7113 16.2748 10.4877 17.3011 8.51421 17.3011H5.36719C4.81301 17.3011 4.36364 16.8518 4.36364 16.2976V9.05966C4.36364 8.50548 4.81301 8.05611 5.36719 8.05611ZM6.2983 9.5348V11.8871H7.75142C8.79651 11.8882 9.36648 11.4581 9.36648 10.7152C9.36648 9.97884 8.83626 9.5348 7.91335 9.5348H6.2983ZM16.3232 10.0803C18.4057 10.0803 19.6342 11.4073 19.6342 13.6491V14.218H14.7869V14.3139C14.812 15.3645 15.4278 16.0185 16.402 16.0185C17.1384 16.0185 17.6438 15.7567 17.8423 15.2898H19.5788C19.2974 16.6229 18.0789 17.4545 16.3487 17.4545C14.1964 17.4545 12.929 16.0956 12.929 13.8026C12.929 11.5029 14.2221 10.0803 16.3232 10.0803ZM16.3317 11.5099C15.4666 11.5099 14.8566 12.1106 14.7933 13.027H17.804C17.7647 12.0921 17.2022 11.5099 16.3317 11.5099ZM6.2983 13.1953V15.8224H8.02202C9.13693 15.8224 9.73935 15.3526 9.73935 14.4886C9.73935 13.6421 9.11727 13.1953 7.97727 13.1953H6.2983Z" fill="white"/>
</svg>
