<svg width="25" height="24" viewBox="0 0 25 24" fill="none" xmlns="http://www.w3.org/2000/svg">
<path d="M12.1879 0C5.45713 0 0 5.45713 0 12.1879C0 17.8989 3.93263 22.6776 9.23436 24C9.17749 23.8355 9.14092 23.6445 9.14092 23.4079V21.3248C8.6463 21.3248 7.81752 21.3248 7.60931 21.3248C6.77545 21.3248 6.03402 20.9662 5.67448 20.3C5.27533 19.5595 5.20626 18.4271 4.21701 17.7344C3.92349 17.5039 4.14693 17.2408 4.48515 17.2763C5.10978 17.4531 5.62776 17.8817 6.11528 18.5175C6.60076 19.1543 6.82928 19.2985 7.73627 19.2985C8.17605 19.2985 8.83419 19.2731 9.45374 19.1756C9.78688 18.3296 10.3628 17.5506 11.0666 17.1829C7.00804 16.7655 5.07118 14.7463 5.07118 12.0051C5.07118 10.8249 5.57393 9.68328 6.4281 8.72146C6.14778 7.76674 5.79535 5.81972 6.53576 5.07829C8.36191 5.07829 9.46593 6.26255 9.73102 6.58248C10.641 6.27067 11.6405 6.09395 12.6906 6.09395C13.7429 6.09395 14.7463 6.27067 15.6584 6.58451C15.9204 6.26661 17.0255 5.07829 18.8557 5.07829C19.5992 5.82074 19.2427 7.77588 18.9593 8.72857C19.8084 9.68836 20.3081 10.8269 20.3081 12.0051C20.3081 14.7443 18.3743 16.7624 14.3218 17.1819C15.437 17.7639 16.2505 19.3991 16.2505 20.6311V23.4079C16.2505 23.5135 16.2272 23.5897 16.215 23.6801C20.9642 22.0154 24.3758 17.5059 24.3758 12.1879C24.3758 5.45713 18.9187 0 12.1879 0Z" fill="#7085A6"/>
</svg>
