<svg width="25" height="24" viewBox="0 0 25 24" fill="none" xmlns="http://www.w3.org/2000/svg">
<path d="M12.6263 0C6.00971 0 0.626328 5.38338 0.626328 12C0.626328 18.6166 6.00971 24 12.6263 24C19.2429 24 24.6263 18.6166 24.6263 12C24.6263 5.38338 19.2429 0 12.6263 0ZM9.5488 3.69231H15.702C18.5867 3.69231 20.934 6.03878 20.934 8.92248V15.0757C20.934 17.9603 18.5875 20.3077 15.7039 20.3077H9.55061C6.66599 20.3077 4.31864 17.9612 4.31864 15.0775V8.92428C4.31864 6.03966 6.66511 3.69231 9.5488 3.69231ZM9.5488 5.53846C7.68326 5.53846 6.16479 7.05782 6.16479 8.92428V15.0775C6.16479 16.9431 7.68414 18.4615 9.55061 18.4615H15.7039C17.5694 18.4615 19.0879 16.9422 19.0879 15.0757V8.92248C19.0879 7.05694 17.5685 5.53846 15.702 5.53846H9.5488ZM16.9352 7.07632C17.2749 7.07632 17.55 7.35141 17.55 7.69111C17.55 8.0308 17.2749 8.30769 16.9352 8.30769C16.5955 8.30769 16.3186 8.0308 16.3186 7.69111C16.3186 7.35141 16.5955 7.07632 16.9352 7.07632ZM12.6263 7.38462C15.1713 7.38462 17.2417 9.45508 17.2417 12C17.2417 14.5449 15.1713 16.6154 12.6263 16.6154C10.0814 16.6154 8.01094 14.5449 8.01094 12C8.01094 9.45508 10.0814 7.38462 12.6263 7.38462ZM12.6263 9.23077C11.8919 9.23077 11.1875 9.52253 10.6682 10.0419C10.1489 10.5612 9.8571 11.2656 9.8571 12C9.8571 12.7344 10.1489 13.4388 10.6682 13.9581C11.1875 14.4775 11.8919 14.7692 12.6263 14.7692C13.3608 14.7692 14.0651 14.4775 14.5845 13.9581C15.1038 13.4388 15.3956 12.7344 15.3956 12C15.3956 11.2656 15.1038 10.5612 14.5845 10.0419C14.0651 9.52253 13.3608 9.23077 12.6263 9.23077Z" fill="#7085A6"/>
</svg>
