<svg width="29" height="20" viewBox="0 0 29 20" fill="none" xmlns="http://www.w3.org/2000/svg">
<path d="M14.2852 0C14.3282 3.48299e-06 23.2255 0.00173446 25.4473 0.597656C26.677 0.927026 27.6435 1.8933 27.9727 3.12305C28.5677 5.35023 28.5703 10 28.5703 10C28.5703 10 28.5701 14.6498 27.9727 16.877C27.6435 18.1067 26.677 19.073 25.4473 19.4023C23.2255 19.9983 14.3282 20 14.2852 20C14.2852 20 5.35024 19.9997 3.12305 19.4023C1.89323 19.0731 0.926947 18.1068 0.597656 16.877C0.000290453 14.6498 0 10 0 10C0 10 0.000290453 5.35023 0.597656 3.12305C0.926956 1.89324 1.89325 0.926953 3.12305 0.597656C5.35024 0.000290453 14.2852 0 14.2852 0ZM11.4258 14.2852L18.8477 10L11.4258 5.71484V14.2852Z" fill="white"/>
</svg>
